<svg width="30" height="26" viewBox="0 0 30 26" fill="none" xmlns="http://www.w3.org/2000/svg">
<path d="M8.75 19.0625C8.10103 19.0625 7.46664 19.2549 6.92704 19.6155C6.38744 19.976 5.96687 20.4885 5.71852 21.0881C5.47017 21.6876 5.40519 22.3474 5.5318 22.9839C5.65841 23.6204 5.97092 24.2051 6.42981 24.6639C6.8887 25.1228 7.47336 25.4353 8.10986 25.562C8.74636 25.6886 9.40611 25.6236 10.0057 25.3752C10.6053 25.1269 11.1177 24.7063 11.4783 24.1667C11.8388 23.6271 12.0313 22.9927 12.0313 22.3438C12.0313 21.4735 11.6855 20.6389 11.0702 20.0236C10.4548 19.4082 9.62024 19.0625 8.75 19.0625ZM8.75 23.4375C8.53368 23.4375 8.32221 23.3734 8.14235 23.2532C7.96248 23.133 7.82229 22.9622 7.73951 22.7623C7.65672 22.5625 7.63506 22.3425 7.67727 22.1304C7.71947 21.9182 7.82364 21.7233 7.9766 21.5704C8.12957 21.4174 8.32445 21.3132 8.53662 21.271C8.74879 21.2288 8.9687 21.2505 9.16856 21.3333C9.36842 21.416 9.53924 21.5562 9.65942 21.7361C9.7796 21.916 9.84375 22.1274 9.84375 22.3438C9.84375 22.6338 9.72852 22.912 9.5234 23.1172C9.31828 23.3223 9.04008 23.4375 8.75 23.4375Z" fill="white"/>
<path d="M21.875 19.0625C21.226 19.0625 20.5916 19.2549 20.052 19.6155C19.5124 19.976 19.0919 20.4885 18.8435 21.0881C18.5952 21.6876 18.5302 22.3474 18.6568 22.9839C18.7834 23.6204 19.0959 24.2051 19.5548 24.6639C20.0137 25.1228 20.5984 25.4353 21.2349 25.562C21.8714 25.6886 22.5311 25.6236 23.1307 25.3752C23.7303 25.1269 24.2427 24.7063 24.6033 24.1667C24.9638 23.6271 25.1563 22.9927 25.1563 22.3438C25.1563 21.4735 24.8105 20.6389 24.1952 20.0236C23.5798 19.4082 22.7452 19.0625 21.875 19.0625ZM21.875 23.4375C21.6587 23.4375 21.4472 23.3734 21.2673 23.2532C21.0875 23.133 20.9473 22.9622 20.8645 22.7623C20.7817 22.5625 20.7601 22.3425 20.8023 22.1304C20.8445 21.9182 20.9486 21.7233 21.1016 21.5704C21.2546 21.4174 21.4495 21.3132 21.6616 21.271C21.8738 21.2288 22.0937 21.2505 22.2936 21.3333C22.4934 21.416 22.6642 21.5562 22.7844 21.7361C22.9046 21.916 22.9688 22.1274 22.9688 22.3438C22.9688 22.6338 22.8535 22.912 22.6484 23.1172C22.4433 23.3223 22.1651 23.4375 21.875 23.4375Z" fill="white"/>
<path d="M5.22813 4.375L4.75781 2.48281C4.57985 1.77346 4.17001 1.14388 3.59337 0.694063C3.01673 0.244242 2.30634 -4.1882e-05 1.575 5.38593e-09H0V2.1875H1.575C1.82485 2.18022 2.06966 2.25874 2.26866 2.40998C2.46767 2.56123 2.60887 2.77607 2.66875 3.01875L6.5625 18.8562L6.96719 20.4859C7.14648 21.2008 7.56121 21.8344 8.14455 22.2848C8.72789 22.7352 9.44587 22.9762 10.1828 22.9688H25.1562V20.7812H10.1828C9.93296 20.7885 9.68816 20.71 9.48915 20.5588C9.29014 20.4075 9.14895 20.1927 9.08906 19.95L8.95781 19.4031L25.1562 15.5859C25.7437 15.4494 26.2821 15.1536 26.7124 14.731C27.1426 14.3084 27.4481 13.7755 27.5953 13.1906L29.7828 4.375H5.22813ZM25.5172 12.6656C25.4676 12.8615 25.3646 13.0398 25.2198 13.1807C25.075 13.3217 24.894 13.4197 24.6969 13.4641L8.45469 17.2812L5.775 6.5625H27.0375L25.5172 12.6656Z" fill="white"/>
</svg>
