<svg width="35" height="35" viewBox="0 0 35 35" fill="none" xmlns="http://www.w3.org/2000/svg">
<path d="M13.1251 3C7.50445 3 2.91675 7.5877 2.91675 13.2083C2.91675 18.829 7.50445 23.4167 13.1251 23.4167C15.6742 23.4167 18.0032 22.4659 19.7958 20.9102L20.4167 21.5311V23.4167L29.1667 32.1667L32.0834 29.25L23.3334 20.5H21.4478L20.8269 19.8791C22.3826 18.0865 23.3334 15.7575 23.3334 13.2083C23.3334 7.5877 18.7457 3 13.1251 3ZM13.1251 5.91667C17.1694 5.91667 20.4167 9.16398 20.4167 13.2083C20.4167 17.2527 17.1694 20.5 13.1251 20.5C9.08073 20.5 5.83341 17.2527 5.83341 13.2083C5.83341 9.16398 9.08073 5.91667 13.1251 5.91667Z" fill="white"/>
</svg>
