<svg width="110" height="17" viewBox="0 0 110 17" fill="none" xmlns="http://www.w3.org/2000/svg">
<path d="M2.51941 12.52C2.90341 12.52 3.19141 12.48 3.38341 12.4C3.57541 12.304 3.67141 12.104 3.67141 11.8V4.48H1.27141V1H7.89541V12.208C7.89541 14.736 6.65541 16 4.17541 16H0.911406L0.479406 12.52H2.51941ZM16.94 16.36C15.196 16.36 13.876 16.2 12.98 15.88C12.084 15.544 11.452 14.976 11.084 14.176C10.716 13.376 10.532 12.2 10.532 10.648V1H14.756V12.76H17.036C17.628 12.76 18.068 12.728 18.356 12.664C18.66 12.584 18.868 12.456 18.98 12.28C19.108 12.104 19.172 11.84 19.172 11.488V1H23.396V10.648C23.396 12.184 23.212 13.36 22.844 14.176C22.476 14.976 21.836 15.544 20.924 15.88C20.012 16.2 18.684 16.36 16.94 16.36ZM25.8864 12.088C27.4544 12.568 29.0624 12.808 30.7104 12.808C31.5424 12.808 32.2544 12.76 32.8464 12.664V10.6L30.6624 10.408C29.3664 10.296 28.3424 10.08 27.5904 9.76C26.8544 9.424 26.3184 8.952 25.9824 8.344C25.6624 7.72 25.5024 6.888 25.5024 5.848C25.5024 4.552 25.6784 3.528 26.0304 2.776C26.3984 2.024 26.9904 1.48 27.8064 1.144C28.6224 0.807999 29.7344 0.639999 31.1424 0.639999C32.9984 0.639999 34.8144 0.855999 36.5904 1.288L36.0624 4.672C35.2464 4.512 34.5344 4.4 33.9264 4.336C33.3344 4.256 32.7104 4.216 32.0544 4.216C31.2384 4.216 30.5664 4.256 30.0384 4.336V6.4L32.0064 6.568C33.9264 6.744 35.3024 7.208 36.1344 7.96C36.9664 8.696 37.3824 9.84 37.3824 11.392C37.3824 13.136 36.8944 14.4 35.9184 15.184C34.9584 15.968 33.3904 16.36 31.2144 16.36C29.0864 16.36 27.1104 16.096 25.2864 15.568L25.8864 12.088ZM45.9858 16H41.7618V4.48H38.2578V1H49.4898V4.48H45.9858V16ZM62.6013 1C64.4413 1 65.8413 1.216 66.8013 1.648C67.7613 2.08 68.4333 2.824 68.8173 3.88C69.2173 4.936 69.4173 6.48 69.4173 8.512C69.4173 10.544 69.2173 12.088 68.8173 13.144C68.4333 14.2 67.7613 14.944 66.8013 15.376C65.8413 15.792 64.4413 16 62.6013 16H56.2173V1H62.6013ZM60.4413 12.688H62.9853C63.6893 12.688 64.1773 12.576 64.4493 12.352C64.7213 12.112 64.8573 11.696 64.8573 11.104V5.896C64.8573 5.304 64.7213 4.896 64.4493 4.672C64.1773 4.432 63.6893 4.312 62.9853 4.312H60.4413V12.688ZM71.2518 8.512C71.2518 6.432 71.4598 4.84 71.8758 3.736C72.2918 2.616 72.9878 1.824 73.9638 1.36C74.9558 0.879999 76.3638 0.639999 78.1878 0.639999C79.9958 0.639999 81.3878 0.879999 82.3638 1.36C83.3558 1.824 84.0598 2.616 84.4758 3.736C84.8918 4.84 85.0998 6.432 85.0998 8.512C85.0998 10.576 84.8918 12.168 84.4758 13.288C84.0598 14.392 83.3558 15.184 82.3638 15.664C81.3878 16.128 79.9958 16.36 78.1878 16.36C76.3638 16.36 74.9558 16.128 73.9638 15.664C72.9878 15.184 72.2918 14.392 71.8758 13.288C71.4598 12.168 71.2518 10.576 71.2518 8.512ZM78.6438 12.76C79.3638 12.76 79.8598 12.656 80.1318 12.448C80.4198 12.24 80.5638 11.88 80.5638 11.368V4.24H77.7078C76.9878 4.24 76.4838 4.344 76.1958 4.552C75.9238 4.76 75.7878 5.12 75.7878 5.632V12.76H78.6438ZM96.7929 1V16H92.5689V1H96.7929ZM106.103 16H101.879V4.48H98.375V1H109.607V4.48H106.103V16Z" fill="white"/>
</svg>
