<svg width="212" height="31" viewBox="0 0 212 31" fill="none" xmlns="http://www.w3.org/2000/svg">
<path d="M41.6048 0C47.0768 0 49.8128 2.448 49.8128 7.344C49.8128 9.36 49.5088 11.28 48.9008 13.104C47.7808 16.56 46.0208 18.864 43.6208 20.016L46.7888 30H36.7568L34.5488 21.072H32.5808L31.0448 30H21.9248L27.2048 0H41.6048ZM35.9888 13.68C37.0768 13.68 37.8928 13.568 38.4368 13.344C39.0128 13.088 39.3968 12.4 39.5888 11.28C39.8128 10.128 39.9248 9.424 39.9248 9.168C39.9248 8.528 39.6688 8.128 39.1568 7.968C38.6768 7.776 37.8768 7.68 36.7568 7.68H34.9328L33.8768 13.68H35.9888ZM20.4848 29.856L0.132812 27.696H20.8688L20.4848 29.856ZM22.1168 20.592L1.76481 18.432H22.5008L22.1168 20.592ZM23.7008 11.376L3.39681 9.216H24.0848L23.7008 11.376ZM24.5168 6.768L4.21281 4.608H24.9008L24.5168 6.768ZM21.3008 25.2L0.948812 23.04H21.6848L21.3008 25.2ZM25.3328 2.16L5.02881 0H25.7168L25.3328 2.16ZM22.8848 15.984L2.58081 13.824H23.2688L22.8848 15.984ZM61.7131 11.376L41.3611 9.216H62.0971L61.7131 11.376ZM60.8971 15.984L40.5931 13.824H61.2811L60.8971 15.984ZM63.3451 2.16L43.0411 0H63.7291L63.3451 2.16ZM42.2251 4.608H62.9131L62.5291 6.768L42.2251 4.608ZM60.4651 18.432C60.3371 19.488 60.2571 20.208 60.2251 20.592L39.9211 18.432H60.4651ZM60.1291 23.04C60.1291 23.808 60.1771 24.528 60.2731 25.2L39.9691 23.04H60.1291ZM60.9451 27.696C61.3611 28.592 61.8731 29.312 62.4811 29.856L42.1771 27.696H60.9451ZM73.6171 22.512C74.7371 22.512 75.5371 22.368 76.0171 22.08C76.4971 21.76 76.8331 21.056 77.0251 19.968L80.5771 0H89.6971L86.7211 16.848C86.2411 19.568 85.6811 21.76 85.0411 23.424C84.4331 25.088 83.5691 26.496 82.4491 27.648C81.3291 28.8 79.9371 29.6 78.2731 30.048C76.6411 30.496 74.5611 30.72 72.0331 30.72C68.1611 30.72 65.4411 30.144 63.8731 28.992C62.3371 27.808 61.5691 25.792 61.5691 22.944C61.5691 21.376 61.7931 19.344 62.2411 16.848L65.2171 0H74.3371L70.3531 22.512H73.6171ZM111.031 19.344C110.903 19.12 110.839 18.816 110.839 18.432C110.839 18.016 110.871 17.552 110.935 17.04H110.551L108.295 30H99.1748L104.455 0H113.047L117.943 10.656C118.039 10.88 118.087 11.2 118.087 11.616C118.087 12 118.055 12.448 117.991 12.96H118.375L120.679 0H129.799L124.519 30H115.927L111.031 19.344ZM97.7348 29.856L77.3828 27.696H98.1188L97.7348 29.856ZM99.3668 20.592L79.0148 18.432H99.7508L99.3668 20.592ZM100.183 15.984L79.8308 13.824H100.567L100.183 15.984ZM100.999 11.376L80.6468 9.216H101.383L100.999 11.376ZM101.815 6.768L81.4628 4.608H102.151L101.815 6.768ZM98.5508 25.2L78.1988 23.04H98.9348L98.5508 25.2ZM102.583 2.16L82.2788 0H102.967L102.583 2.16ZM151.859 19.344C151.731 19.12 151.667 18.816 151.667 18.432C151.667 18.016 151.699 17.552 151.763 17.04H151.379L149.123 30H140.003L145.283 0H153.875L158.771 10.656C158.867 10.88 158.915 11.2 158.915 11.616C158.915 12 158.883 12.448 158.819 12.96H159.203L161.507 0H170.627L165.347 30H156.755L151.859 19.344ZM138.563 29.856L118.211 27.696H138.947L138.563 29.856ZM140.195 20.592L119.843 18.432H140.579L140.195 20.592ZM141.011 15.984L120.659 13.824H141.395L141.011 15.984ZM141.827 11.376L121.475 9.216H142.211L141.827 11.376ZM142.643 6.768L122.291 4.608H142.979L142.643 6.768ZM139.379 25.2L119.027 23.04H139.763L139.379 25.2ZM143.411 2.16L123.107 0H143.795L143.411 2.16ZM192.687 19.344C192.559 19.12 192.495 18.816 192.495 18.432C192.495 18.016 192.527 17.552 192.591 17.04H192.207L189.951 30H180.831L186.111 0H194.703L199.599 10.656C199.695 10.88 199.743 11.2 199.743 11.616C199.743 12 199.711 12.448 199.647 12.96H200.031L202.335 0H211.455L206.175 30H197.583L192.687 19.344ZM179.391 29.856L159.039 27.696H179.775L179.391 29.856ZM181.023 20.592L160.671 18.432H181.407L181.023 20.592ZM181.839 15.984L161.487 13.824H182.223L181.839 15.984ZM182.655 11.376L162.303 9.216H183.039L182.655 11.376ZM183.471 6.768L163.119 4.608H183.807L183.471 6.768ZM180.207 25.2L159.855 23.04H180.591L180.207 25.2ZM184.239 2.16L163.935 0H184.623L184.239 2.16Z" fill="#0FBCD3"/>
</svg>
